<svg version="1.1" id="Layer_1" xmlns="http://www.w3.org/2000/svg" xmlns:xlink="http://www.w3.org/1999/xlink" x="0px" y="0px"
	 width="100%" viewBox="0 0 1822 447" enable-background="new 0 0 1822 447" xml:space="preserve">
<path fill="#F6F6F6" opacity="1.000000" stroke="none" 
	d="
M1351.000000,448.000000 
	C900.666687,448.000000 450.833344,448.000000 1.000000,448.000000 
	C1.000000,299.000000 1.000000,150.000000 1.000000,1.000000 
	C608.333313,1.000000 1215.666626,1.000000 1823.000000,1.000000 
	C1823.000000,150.000000 1823.000000,299.000000 1823.000000,448.000000 
	C1665.833374,448.000000 1508.666626,448.000000 1351.000000,448.000000 
M1354.374878,171.000198 
	C1355.807007,170.900070 1357.239258,170.799957 1358.535156,170.709366 
	C1358.535156,158.903702 1358.535156,147.513412 1358.535156,136.152008 
	C1342.986084,135.475159 1329.808716,135.868408 1315.579346,142.149063 
	C1313.935913,142.874466 1311.350464,142.496368 1309.578247,141.743469 
	C1285.810181,131.646011 1261.838867,131.932602 1238.173462,141.310455 
	C1196.917847,157.658691 1189.148438,211.342392 1223.872559,238.371597 
	C1232.664307,245.215103 1242.826172,249.212173 1254.064453,251.522629 
	C1254.064453,255.892868 1254.329956,260.055206 1253.920898,264.150085 
	C1253.776978,265.591156 1252.257812,267.401184 1250.884521,268.114136 
	C1247.366333,269.940582 1243.387573,270.902924 1239.930176,272.819244 
	C1225.848877,280.624207 1217.987061,292.510437 1218.068604,308.816620 
	C1218.147461,324.515656 1225.593140,336.006226 1239.368530,343.493988 
	C1256.494141,352.802887 1274.535278,354.115570 1293.075928,349.241119 
	C1306.369751,345.746124 1317.745850,339.212616 1324.067993,326.182678 
	C1334.493896,304.695007 1323.590698,278.728851 1299.983521,270.151672 
	C1294.364258,268.110077 1292.710571,265.576996 1293.035156,259.930450 
	C1293.525513,251.400131 1293.246216,251.632294 1301.698853,248.851746 
	C1327.796997,240.266663 1346.723755,218.236649 1343.131226,187.425919 
	C1342.542725,182.379150 1341.195312,177.420853 1340.056519,171.708496 
	C1344.548096,171.470444 1348.984863,171.235291 1354.374878,171.000198 
M1448.331665,134.920914 
	C1436.297974,135.177002 1426.292969,140.209595 1416.810913,149.087372 
	C1416.810913,124.711517 1416.810913,101.384979 1416.810913,78.113083 
	C1402.039185,78.113083 1387.929688,78.113083 1373.610840,78.113083 
	C1373.610840,145.766174 1373.610840,213.146591 1373.610840,280.569275 
	C1388.177612,280.569275 1402.400146,280.569275 1416.931885,280.569275 
	C1416.931885,278.393646 1416.930542,276.581360 1416.931763,274.769073 
	C1416.947632,252.106735 1416.726807,229.441055 1417.047119,206.783020 
	C1417.363647,184.388519 1433.078247,171.564636 1455.195923,175.313568 
	C1465.206665,177.010391 1472.539551,182.474533 1475.079956,192.559769 
	C1476.647583,198.783173 1477.515259,205.331970 1477.607910,211.750427 
	C1477.913574,232.908936 1477.717407,254.074600 1477.733398,275.237518 
	C1477.734741,277.006195 1477.881714,278.774780 1477.964966,280.629211 
	C1492.498535,280.629211 1506.563354,280.629211 1520.803467,280.629211 
	C1520.882080,279.533905 1520.990967,278.727417 1520.990845,277.920929 
	C1520.988037,253.925430 1521.310303,229.922409 1520.774048,205.938629 
	C1520.594604,197.911133 1519.087524,189.662537 1516.695923,181.979263 
	C1507.007446,150.854553 1479.346313,131.817047 1448.331665,134.920914 
M483.895905,236.337967 
	C483.895905,249.734100 483.895905,263.130249 483.895905,277.657562 
	C498.532440,279.217377 513.023071,281.278503 527.585754,282.193604 
	C549.959717,283.599548 572.276917,282.804596 593.327759,273.870544 
	C622.842163,261.344604 628.568848,232.566559 619.992676,209.173111 
	C614.724487,194.803055 602.930664,186.862366 589.060303,182.313171 
	C575.969482,178.019669 562.443054,175.071106 549.259766,171.035843 
	C542.803162,169.059540 536.508789,166.315475 530.487061,163.241104 
	C526.565186,161.238861 524.747131,157.218765 525.340515,152.662476 
	C525.935425,148.094147 529.453613,146.546646 533.388916,145.661484 
	C535.170410,145.260757 536.974915,144.611374 538.761047,144.636551 
	C556.545349,144.887283 574.340149,144.965591 592.105591,145.717758 
	C600.472961,146.072006 608.782837,147.784500 617.571899,148.941177 
	C617.571899,136.118591 617.642883,123.645584 617.445923,111.176826 
	C617.428955,110.103378 615.793030,108.377121 614.643127,108.113174 
	C608.492981,106.701492 602.296326,105.373405 596.046082,104.537437 
	C571.180725,101.211678 546.318176,99.794266 521.823486,107.005447 
	C508.546906,110.914055 496.917542,117.487808 489.983704,130.116959 
	C474.867126,157.649948 486.231445,190.096588 515.923950,201.908188 
	C529.115173,207.155624 543.361572,209.688599 556.883179,214.191772 
	C564.355408,216.680283 571.877747,219.870010 578.355591,224.253662 
	C584.842957,228.643784 583.133667,236.103806 575.478882,237.928635 
	C568.260986,239.649323 560.728943,240.607468 553.305542,240.807831 
	C530.303345,241.428711 507.390381,240.093338 483.895905,236.337967 
M1111.731323,112.876358 
	C1112.278687,109.591484 1110.914062,108.078796 1107.570435,107.636459 
	C1095.881592,106.090141 1084.261230,103.908478 1072.536865,102.772316 
	C1053.549316,100.932297 1034.660156,101.574562 1016.126709,106.914360 
	C980.211548,117.262085 965.841248,156.043518 987.351318,185.255951 
	C995.271423,196.012177 1006.823120,201.745651 1019.172485,205.620956 
	C1029.467163,208.851532 1040.093872,211.008698 1050.499512,213.906982 
	C1058.827393,216.226562 1067.195923,218.711365 1073.546387,225.090683 
	C1077.950684,229.514938 1076.870728,234.966751 1071.147339,237.565628 
	C1069.360474,238.376984 1067.353149,238.801437 1065.401001,239.134766 
	C1044.828247,242.647400 1024.211548,240.793381 1003.630615,239.332199 
	C995.108398,238.727158 986.650269,237.219376 978.132812,236.118225 
	C978.132812,249.906006 978.132812,263.298309 978.132812,277.712433 
	C992.809875,279.226257 1007.156250,281.087555 1021.562317,282.102051 
	C1042.946533,283.607910 1064.254639,282.841278 1084.564453,275.027161 
	C1111.800293,264.548309 1121.315674,242.757065 1116.532349,216.930313 
	C1113.038452,198.065887 1099.792847,187.606995 1082.489502,182.084045 
	C1067.304688,177.237305 1051.731323,173.614456 1036.507446,168.879669 
	C1031.557739,167.340271 1026.596802,164.671448 1022.655945,161.324356 
	C1016.633240,156.209045 1018.914062,147.996353 1026.484863,145.972427 
	C1030.002441,145.032059 1033.688354,144.090897 1037.278320,144.160675 
	C1053.908203,144.483871 1070.544556,144.914124 1087.150757,145.819000 
	C1095.210938,146.258179 1103.209473,147.823868 1111.731445,148.944748 
	C1111.731445,137.070251 1111.731445,125.434029 1111.731323,112.876358 
M292.429535,164.951614 
	C280.719940,169.939362 269.010315,174.927124 257.225342,179.946991 
	C256.159332,178.601135 255.296173,177.606522 254.537094,176.537964 
	C248.369644,167.856125 242.263626,159.130341 236.052963,150.479630 
	C231.961746,144.781067 228.788574,143.942383 222.340149,146.545486 
	C220.384140,147.335083 218.415619,148.093674 216.206451,148.963455 
	C215.062149,146.415924 214.036026,144.168106 213.041214,141.906525 
	C212.037933,139.625748 211.120667,137.305740 210.069061,135.047928 
	C207.475372,129.479279 202.718048,127.163040 198.100021,129.156418 
	C193.374680,131.196121 191.735687,136.171341 194.037689,141.905304 
	C195.877380,146.487778 197.871582,151.008209 199.865585,155.717697 
	C198.151047,156.578018 196.696014,157.363907 195.196030,158.051743 
	C185.592331,162.455673 184.606567,164.399582 186.779358,174.570145 
	C189.059158,185.241562 191.309540,195.919266 193.643188,206.926285 
	C188.791809,208.983902 184.233017,210.918472 179.673401,212.851120 
	C151.568970,224.763489 123.458633,236.661896 95.363495,248.596130 
	C87.417419,251.971466 79.304291,255.054718 71.711304,259.103668 
	C69.151802,260.468536 66.747498,264.312225 66.526733,267.195648 
	C66.344055,269.581635 68.950714,273.304871 71.291489,274.446106 
	C73.656616,275.599243 77.437874,274.936646 80.206314,273.958649 
	C87.027367,271.548889 93.623291,268.501862 100.422600,265.663971 
	C103.762657,285.903442 111.030777,295.332794 125.584785,298.745728 
	C138.166351,301.696167 151.404617,296.973602 158.776627,285.759491 
	C168.770737,270.556702 165.884399,256.246460 153.581268,243.006409 
	C165.879196,237.798172 177.718994,232.783936 190.115829,227.533813 
	C191.701447,255.017441 204.757065,273.306061 231.566223,278.842468 
	C252.602615,283.186707 270.539307,275.435730 282.099640,257.473022 
	C297.032410,234.270157 292.800171,212.024323 274.296997,191.743530 
	C286.656342,186.528885 298.543488,181.513443 310.679321,176.393112 
	C312.774078,195.420410 320.543121,205.429184 335.711700,209.489044 
	C347.724121,212.704147 361.300262,208.001526 368.897522,196.594727 
	C378.964264,181.480179 376.096954,167.081024 363.905975,153.896317 
	C365.506317,153.144836 366.668640,152.557419 367.863251,152.045181 
	C373.653656,149.562256 379.550018,147.301392 385.219208,144.568451 
	C390.131744,142.200272 391.841675,137.287781 389.825867,132.875259 
	C387.813812,128.470917 383.035278,126.799011 377.921906,128.767670 
	C375.755951,129.601578 373.631348,130.543686 371.493500,131.449768 
	C345.374725,142.519684 319.256989,153.592041 292.429535,164.951614 
M755.237305,166.705750 
	C752.071167,179.787628 751.074158,193.019592 753.069641,206.351578 
	C758.352783,241.647064 776.830383,266.340515 811.234558,278.026154 
	C830.532471,284.580811 850.312134,283.632904 870.072571,281.227356 
	C879.257141,280.109283 888.324097,278.024658 897.267944,276.410065 
	C897.267944,261.106506 897.267944,246.695541 897.267944,232.192047 
	C896.484558,232.192047 895.957642,232.050934 895.550720,232.212341 
	C875.781006,240.053818 855.202393,241.787323 834.236938,240.094894 
	C812.551514,238.344360 800.103577,227.111404 796.770203,205.555481 
	C795.586853,197.902679 795.419128,189.875534 796.238281,182.173538 
	C798.221313,163.528152 805.855469,149.909103 828.151550,145.688477 
	C843.645752,142.755447 859.020386,143.994904 874.305115,146.759949 
	C882.043518,148.159851 889.595703,150.589066 897.581787,152.642853 
	C897.581787,139.369217 897.478943,126.224434 897.654053,113.083351 
	C897.697815,109.801018 896.639282,108.543831 893.430359,107.730537 
	C871.403381,102.147804 849.139709,100.526550 826.571411,103.121506 
	C792.472168,107.042305 763.585999,132.569092 755.237305,166.705750 
M1701.107666,184.692810 
	C1699.353516,183.163361 1697.599365,181.633911 1695.845215,180.104462 
	C1697.833008,178.657455 1699.693359,176.962112 1701.854370,175.852341 
	C1703.255859,175.132538 1705.110474,174.983124 1706.738037,175.063187 
	C1722.998413,175.863129 1739.270996,176.536407 1755.501953,177.752930 
	C1761.644897,178.213333 1767.688843,179.992783 1774.263428,181.264938 
	C1774.263428,168.092224 1774.349854,155.625275 1774.107300,143.164734 
	C1774.086792,142.111984 1771.994873,140.442627 1770.642456,140.171173 
	C1750.040161,136.036057 1729.275757,133.251495 1708.212646,134.999420 
	C1695.681152,136.039368 1683.614380,139.071701 1672.880737,146.055527 
	C1655.511353,157.356934 1649.317139,181.699921 1659.031250,199.890839 
	C1665.271362,211.576324 1675.592407,217.955292 1687.803711,221.166061 
	C1702.250244,224.964539 1716.973389,227.700150 1731.500366,231.212006 
	C1734.980713,232.053391 1740.209595,232.682800 1739.930420,237.402969 
	C1739.651123,242.124908 1734.355591,241.800644 1731.064575,241.771591 
	C1713.621582,241.617676 1696.161011,241.368240 1678.751587,240.368622 
	C1670.385986,239.888245 1662.119263,237.682968 1653.282227,236.168808 
	C1653.282227,248.782135 1653.177979,261.231079 1653.457397,273.671417 
	C1653.482910,274.809357 1655.843750,276.640381 1657.326050,276.880798 
	C1668.148682,278.636261 1678.985596,280.466431 1689.890869,281.515076 
	C1710.877930,283.533173 1731.762329,283.444580 1751.948975,275.973236 
	C1777.432129,266.541687 1789.255005,239.103043 1777.646729,216.034531 
	C1771.733154,204.282822 1761.150391,198.277649 1749.147949,195.194290 
	C1733.543213,191.185471 1717.652832,188.288422 1701.107666,184.692810 
M1545.273071,188.499924 
	C1545.272583,194.665512 1545.188232,200.832474 1545.288940,206.996414 
	C1545.515015,220.835327 1548.046631,234.112045 1555.343750,246.135010 
	C1568.824951,268.346619 1589.334351,279.177307 1614.494995,281.822052 
	C1622.094604,282.620911 1629.868286,281.765320 1637.432129,281.669189 
	C1637.432129,267.161591 1637.432129,254.120193 1637.432129,240.756378 
	C1634.360229,241.122375 1631.728760,241.441940 1629.095581,241.748627 
	C1612.525879,243.678558 1597.594482,236.906235 1592.211182,223.959015 
	C1589.984863,218.604721 1589.346802,212.393539 1588.979004,206.510025 
	C1588.455322,198.132324 1588.845947,189.697464 1588.845947,180.855255 
	C1602.785278,180.855255 1615.875244,180.855255 1628.916992,180.855255 
	C1628.916992,167.328384 1628.916992,154.263901 1628.916992,140.733887 
	C1615.473755,140.733887 1602.383545,140.733887 1588.826172,140.733887 
	C1588.826172,127.351830 1588.826172,114.433060 1588.826172,101.308945 
	C1574.132935,101.308945 1559.920532,101.308945 1545.273315,101.308945 
	C1545.273315,130.245132 1545.273315,158.872528 1545.273071,188.499924 
M640.890869,281.905548 
	C657.476624,283.273163 673.553406,281.144470 688.373901,273.373444 
	C715.196594,259.309143 727.478027,236.385574 727.560669,206.546478 
	C727.651489,173.717148 727.585449,140.887360 727.570374,108.057770 
	C727.569702,106.604492 727.395691,105.151299 727.301208,103.678192 
	C712.749084,103.678192 698.540527,103.678192 684.062866,103.678192 
	C684.062866,105.913979 684.062866,107.736725 684.062866,109.559471 
	C684.062927,141.389175 684.102234,173.218994 684.016846,205.048462 
	C684.005249,209.359451 683.663330,213.717758 682.958679,217.968689 
	C681.480286,226.887833 676.683411,233.800003 668.574707,237.763870 
	C660.318359,241.799927 651.382812,242.752960 642.251221,241.531143 
	C640.510925,241.298279 638.765930,241.100128 636.629089,240.837540 
	C636.629089,253.778076 636.540039,266.095276 636.778076,278.406189 
	C636.799927,279.536102 638.911682,280.625580 640.890869,281.905548 
M1138.263062,246.499954 
	C1138.263062,257.899658 1138.263062,269.299347 1138.263062,280.631012 
	C1153.212036,280.631012 1167.291748,280.631012 1181.530273,280.631012 
	C1181.530273,232.313904 1181.530273,184.305511 1181.530273,136.308075 
	C1167.002563,136.308075 1152.801270,136.308075 1138.263184,136.308075 
	C1138.263184,172.961868 1138.263184,209.230911 1138.263062,246.499954 
M1140.692139,80.229370 
	C1140.184326,80.887779 1139.633179,81.517509 1139.175171,82.208878 
	C1132.108887,92.873283 1134.016113,108.536949 1143.317871,116.327690 
	C1153.028564,124.460922 1169.460693,124.032211 1178.157593,115.418633 
	C1186.614990,107.042397 1187.228882,90.237175 1179.435425,80.435722 
	C1170.758545,69.523201 1152.595825,69.145271 1140.692139,80.229370 
z"/>
<path fill="#1FD761" opacity="1.000000" stroke="none" 
	d="
M1353.898193,171.000183 
	C1348.984863,171.235291 1344.548096,171.470444 1340.056519,171.708496 
	C1341.195312,177.420853 1342.542725,182.379150 1343.131226,187.425919 
	C1346.723755,218.236649 1327.796997,240.266663 1301.698853,248.851746 
	C1293.246216,251.632294 1293.525513,251.400131 1293.035156,259.930450 
	C1292.710571,265.576996 1294.364258,268.110077 1299.983521,270.151672 
	C1323.590698,278.728851 1334.493896,304.695007 1324.067993,326.182678 
	C1317.745850,339.212616 1306.369751,345.746124 1293.075928,349.241119 
	C1274.535278,354.115570 1256.494141,352.802887 1239.368530,343.493988 
	C1225.593140,336.006226 1218.147461,324.515656 1218.068604,308.816620 
	C1217.987061,292.510437 1225.848877,280.624207 1239.930176,272.819244 
	C1243.387573,270.902924 1247.366333,269.940582 1250.884521,268.114136 
	C1252.257812,267.401184 1253.776978,265.591156 1253.920898,264.150085 
	C1254.329956,260.055206 1254.064453,255.892868 1254.064453,251.522629 
	C1242.826172,249.212173 1232.664307,245.215103 1223.872559,238.371597 
	C1189.148438,211.342392 1196.917847,157.658691 1238.173462,141.310455 
	C1261.838867,131.932602 1285.810181,131.646011 1309.578247,141.743469 
	C1311.350464,142.496368 1313.935913,142.874466 1315.579346,142.149063 
	C1329.808716,135.868408 1342.986084,135.475159 1358.535156,136.152008 
	C1358.535156,147.513412 1358.535156,158.903702 1358.535156,170.709366 
	C1357.239258,170.799957 1355.807007,170.900070 1353.898193,171.000183 
M1255.218140,209.478516 
	C1266.837158,214.171005 1278.561279,214.279526 1290.145630,209.657272 
	C1297.022705,206.913239 1300.261841,201.346298 1300.256226,193.932266 
	C1300.250488,186.349762 1296.975464,180.750183 1289.885986,177.872910 
	C1279.617798,173.705536 1269.071655,173.911713 1258.583862,176.911026 
	C1251.480225,178.942535 1246.730957,183.435822 1245.818115,191.155960 
	C1244.891479,198.992371 1247.396484,205.193161 1255.218140,209.478516 
M1258.377686,314.814423 
	C1263.362549,323.028748 1279.002197,324.744141 1285.515747,317.726898 
	C1286.507202,316.658844 1287.305420,315.303345 1287.844849,313.942749 
	C1290.143311,308.145142 1288.534302,301.209656 1284.275635,297.988068 
	C1279.146118,294.107727 1267.953247,293.885284 1262.377686,297.552856 
	C1257.413330,300.818390 1255.876221,306.715179 1258.377686,314.814423 
z"/>
<path fill="#20D761" opacity="1.000000" stroke="none" 
	d="
M1448.776855,134.891083 
	C1479.346313,131.817047 1507.007446,150.854553 1516.695923,181.979263 
	C1519.087524,189.662537 1520.594604,197.911133 1520.774048,205.938629 
	C1521.310303,229.922409 1520.988037,253.925430 1520.990845,277.920929 
	C1520.990967,278.727417 1520.882080,279.533905 1520.803467,280.629211 
	C1506.563354,280.629211 1492.498535,280.629211 1477.964966,280.629211 
	C1477.881714,278.774780 1477.734741,277.006195 1477.733398,275.237518 
	C1477.717407,254.074600 1477.913574,232.908936 1477.607910,211.750427 
	C1477.515259,205.331970 1476.647583,198.783173 1475.079956,192.559769 
	C1472.539551,182.474533 1465.206665,177.010391 1455.195923,175.313568 
	C1433.078247,171.564636 1417.363647,184.388519 1417.047119,206.783020 
	C1416.726807,229.441055 1416.947632,252.106735 1416.931763,274.769073 
	C1416.930542,276.581360 1416.931885,278.393646 1416.931885,280.569275 
	C1402.400146,280.569275 1388.177612,280.569275 1373.610840,280.569275 
	C1373.610840,213.146591 1373.610840,145.766174 1373.610840,78.113083 
	C1387.929688,78.113083 1402.039185,78.113083 1416.810913,78.113083 
	C1416.810913,101.384979 1416.810913,124.711517 1416.810913,149.087372 
	C1426.292969,140.209595 1436.297974,135.177002 1448.776855,134.891083 
z"/>
<path fill="#20D761" opacity="1.000000" stroke="none" 
	d="
M484.296082,236.164581 
	C507.390381,240.093338 530.303345,241.428711 553.305542,240.807831 
	C560.728943,240.607468 568.260986,239.649323 575.478882,237.928635 
	C583.133667,236.103806 584.842957,228.643784 578.355591,224.253662 
	C571.877747,219.870010 564.355408,216.680283 556.883179,214.191772 
	C543.361572,209.688599 529.115173,207.155624 515.923950,201.908188 
	C486.231445,190.096588 474.867126,157.649948 489.983704,130.116959 
	C496.917542,117.487808 508.546906,110.914055 521.823486,107.005447 
	C546.318176,99.794266 571.180725,101.211678 596.046082,104.537437 
	C602.296326,105.373405 608.492981,106.701492 614.643127,108.113174 
	C615.793030,108.377121 617.428955,110.103378 617.445923,111.176826 
	C617.642883,123.645584 617.571899,136.118591 617.571899,148.941177 
	C608.782837,147.784500 600.472961,146.072006 592.105591,145.717758 
	C574.340149,144.965591 556.545349,144.887283 538.761047,144.636551 
	C536.974915,144.611374 535.170410,145.260757 533.388916,145.661484 
	C529.453613,146.546646 525.935425,148.094147 525.340515,152.662476 
	C524.747131,157.218765 526.565186,161.238861 530.487061,163.241104 
	C536.508789,166.315475 542.803162,169.059540 549.259766,171.035843 
	C562.443054,175.071106 575.969482,178.019669 589.060303,182.313171 
	C602.930664,186.862366 614.724487,194.803055 619.992676,209.173111 
	C628.568848,232.566559 622.842163,261.344604 593.327759,273.870544 
	C572.276917,282.804596 549.959717,283.599548 527.585754,282.193604 
	C513.023071,281.278503 498.532440,279.217377 483.895905,277.657562 
	C483.895905,263.130249 483.895905,249.734100 484.296082,236.164581 
z"/>
<path fill="#20D761" opacity="1.000000" stroke="none" 
	d="
M1111.731445,113.337082 
	C1111.731445,125.434029 1111.731445,137.070251 1111.731445,148.944748 
	C1103.209473,147.823868 1095.210938,146.258179 1087.150757,145.819000 
	C1070.544556,144.914124 1053.908203,144.483871 1037.278320,144.160675 
	C1033.688354,144.090897 1030.002441,145.032059 1026.484863,145.972427 
	C1018.914062,147.996353 1016.633240,156.209045 1022.655945,161.324356 
	C1026.596802,164.671448 1031.557739,167.340271 1036.507446,168.879669 
	C1051.731323,173.614456 1067.304688,177.237305 1082.489502,182.084045 
	C1099.792847,187.606995 1113.038452,198.065887 1116.532349,216.930313 
	C1121.315674,242.757065 1111.800293,264.548309 1084.564453,275.027161 
	C1064.254639,282.841278 1042.946533,283.607910 1021.562317,282.102051 
	C1007.156250,281.087555 992.809875,279.226257 978.132812,277.712433 
	C978.132812,263.298309 978.132812,249.906006 978.132812,236.118225 
	C986.650269,237.219376 995.108398,238.727158 1003.630615,239.332199 
	C1024.211548,240.793381 1044.828247,242.647400 1065.401001,239.134766 
	C1067.353149,238.801437 1069.360474,238.376984 1071.147339,237.565628 
	C1076.870728,234.966751 1077.950684,229.514938 1073.546387,225.090683 
	C1067.195923,218.711365 1058.827393,216.226562 1050.499512,213.906982 
	C1040.093872,211.008698 1029.467163,208.851532 1019.172485,205.620956 
	C1006.823120,201.745651 995.271423,196.012177 987.351318,185.255951 
	C965.841248,156.043518 980.211548,117.262085 1016.126709,106.914360 
	C1034.660156,101.574562 1053.549316,100.932297 1072.536865,102.772316 
	C1084.261230,103.908478 1095.881592,106.090141 1107.570435,107.636459 
	C1110.914062,108.078796 1112.278687,109.591484 1111.731445,113.337082 
z"/>
<path fill="#21D762" opacity="1.000000" stroke="none" 
	d="
M292.784241,164.807693 
	C319.256989,153.592041 345.374725,142.519684 371.493500,131.449768 
	C373.631348,130.543686 375.755951,129.601578 377.921906,128.767670 
	C383.035278,126.799011 387.813812,128.470917 389.825867,132.875259 
	C391.841675,137.287781 390.131744,142.200272 385.219208,144.568451 
	C379.550018,147.301392 373.653656,149.562256 367.863251,152.045181 
	C366.668640,152.557419 365.506317,153.144836 363.905975,153.896317 
	C376.096954,167.081024 378.964264,181.480179 368.897522,196.594727 
	C361.300262,208.001526 347.724121,212.704147 335.711700,209.489044 
	C320.543121,205.429184 312.774078,195.420410 310.679321,176.393112 
	C298.543488,181.513443 286.656342,186.528885 274.296997,191.743530 
	C292.800171,212.024323 297.032410,234.270157 282.099640,257.473022 
	C270.539307,275.435730 252.602615,283.186707 231.566223,278.842468 
	C204.757065,273.306061 191.701447,255.017441 190.115829,227.533813 
	C177.718994,232.783936 165.879196,237.798172 153.581268,243.006409 
	C165.884399,256.246460 168.770737,270.556702 158.776627,285.759491 
	C151.404617,296.973602 138.166351,301.696167 125.584785,298.745728 
	C111.030777,295.332794 103.762657,285.903442 100.422600,265.663971 
	C93.623291,268.501862 87.027367,271.548889 80.206314,273.958649 
	C77.437874,274.936646 73.656616,275.599243 71.291489,274.446106 
	C68.950714,273.304871 66.344055,269.581635 66.526733,267.195648 
	C66.747498,264.312225 69.151802,260.468536 71.711304,259.103668 
	C79.304291,255.054718 87.417419,251.971466 95.363495,248.596130 
	C123.458633,236.661896 151.568970,224.763489 179.673401,212.851120 
	C184.233017,210.918472 188.791809,208.983902 193.643188,206.926285 
	C191.309540,195.919266 189.059158,185.241562 186.779358,174.570145 
	C184.606567,164.399582 185.592331,162.455673 195.196030,158.051743 
	C196.696014,157.363907 198.151047,156.578018 199.865585,155.717697 
	C197.871582,151.008209 195.877380,146.487778 194.037689,141.905304 
	C191.735687,136.171341 193.374680,131.196121 198.100021,129.156418 
	C202.718048,127.163040 207.475372,129.479279 210.069061,135.047928 
	C211.120667,137.305740 212.037933,139.625748 213.041214,141.906525 
	C214.036026,144.168106 215.062149,146.415924 216.206451,148.963455 
	C218.415619,148.093674 220.384140,147.335083 222.340149,146.545486 
	C228.788574,143.942383 231.961746,144.781067 236.052963,150.479630 
	C242.263626,159.130341 248.369644,167.856125 254.537094,176.537964 
	C255.296173,177.606522 256.159332,178.601135 257.225342,179.946991 
	C269.010315,174.927124 280.719940,169.939362 292.784241,164.807693 
M218.035873,253.503937 
	C218.949402,254.220306 219.849701,254.954361 220.778458,255.650406 
	C233.910736,265.492462 252.023392,264.362152 263.619629,252.982300 
	C274.838989,241.972290 276.446411,223.240768 267.267517,210.472824 
	C257.784302,197.281555 240.091644,193.084747 225.517319,200.493317 
	C207.316772,209.745193 200.748398,235.534683 218.035873,253.503937 
M142.003174,278.571167 
	C147.294128,272.720673 148.489639,266.584015 145.434647,260.957123 
	C142.512192,255.574371 136.555420,252.446045 130.997803,253.375305 
	C124.716225,254.425598 120.335052,258.399628 118.995750,264.261993 
	C117.628830,270.245209 119.593735,275.663849 124.356590,279.045654 
	C129.916016,282.993042 135.104767,282.971344 142.003174,278.571167 
M330.499207,171.321274 
	C326.737427,179.567215 329.213745,187.460785 336.753113,191.256302 
	C343.545319,194.675674 351.658630,192.007538 355.504974,185.089539 
	C359.086456,178.647919 356.892578,170.395386 350.509552,166.298492 
	C343.865265,162.033936 335.692963,163.872162 330.499207,171.321274 
M231.665054,176.090225 
	C229.272507,172.726181 226.879944,169.362137 224.280151,165.706711 
	C218.690643,168.107285 213.223419,170.390427 207.830826,172.837982 
	C206.975525,173.226181 205.779068,174.469543 205.889648,175.123062 
	C206.721237,180.036880 207.840881,184.901947 208.727875,189.106415 
	C217.163177,185.494385 225.001968,182.137787 233.073715,178.681427 
	C232.943954,178.428482 232.511963,177.586273 231.665054,176.090225 
z"/>
<path fill="#20D762" opacity="1.000000" stroke="none" 
	d="
M755.358154,166.310684 
	C763.585999,132.569092 792.472168,107.042305 826.571411,103.121506 
	C849.139709,100.526550 871.403381,102.147804 893.430359,107.730537 
	C896.639282,108.543831 897.697815,109.801018 897.654053,113.083351 
	C897.478943,126.224434 897.581787,139.369217 897.581787,152.642853 
	C889.595703,150.589066 882.043518,148.159851 874.305115,146.759949 
	C859.020386,143.994904 843.645752,142.755447 828.151550,145.688477 
	C805.855469,149.909103 798.221313,163.528152 796.238281,182.173538 
	C795.419128,189.875534 795.586853,197.902679 796.770203,205.555481 
	C800.103577,227.111404 812.551514,238.344360 834.236938,240.094894 
	C855.202393,241.787323 875.781006,240.053818 895.550720,232.212341 
	C895.957642,232.050934 896.484558,232.192047 897.267944,232.192047 
	C897.267944,246.695541 897.267944,261.106506 897.267944,276.410065 
	C888.324097,278.024658 879.257141,280.109283 870.072571,281.227356 
	C850.312134,283.632904 830.532471,284.580811 811.234558,278.026154 
	C776.830383,266.340515 758.352783,241.647064 753.069641,206.351578 
	C751.074158,193.019592 752.071167,179.787628 755.358154,166.310684 
z"/>
<path fill="#1FD761" opacity="1.000000" stroke="none" 
	d="
M1701.496582,184.802841 
	C1717.652832,188.288422 1733.543213,191.185471 1749.147949,195.194290 
	C1761.150391,198.277649 1771.733154,204.282822 1777.646729,216.034531 
	C1789.255005,239.103043 1777.432129,266.541687 1751.948975,275.973236 
	C1731.762329,283.444580 1710.877930,283.533173 1689.890869,281.515076 
	C1678.985596,280.466431 1668.148682,278.636261 1657.326050,276.880798 
	C1655.843750,276.640381 1653.482910,274.809357 1653.457397,273.671417 
	C1653.177979,261.231079 1653.282227,248.782135 1653.282227,236.168808 
	C1662.119263,237.682968 1670.385986,239.888245 1678.751587,240.368622 
	C1696.161011,241.368240 1713.621582,241.617676 1731.064575,241.771591 
	C1734.355591,241.800644 1739.651123,242.124908 1739.930420,237.402969 
	C1740.209595,232.682800 1734.980713,232.053391 1731.500366,231.212006 
	C1716.973389,227.700150 1702.250244,224.964539 1687.803711,221.166061 
	C1675.592407,217.955292 1665.271362,211.576324 1659.031250,199.890839 
	C1649.317139,181.699921 1655.511353,157.356934 1672.880737,146.055527 
	C1683.614380,139.071701 1695.681152,136.039368 1708.212646,134.999420 
	C1729.275757,133.251495 1750.040161,136.036057 1770.642456,140.171173 
	C1771.994873,140.442627 1774.086792,142.111984 1774.107300,143.164734 
	C1774.349854,155.625275 1774.263428,168.092224 1774.263428,181.264938 
	C1767.688843,179.992783 1761.644897,178.213333 1755.501953,177.752930 
	C1739.270996,176.536407 1722.998413,175.863129 1706.738037,175.063187 
	C1705.110474,174.983124 1703.255859,175.132538 1701.854370,175.852341 
	C1699.693359,176.962112 1697.833008,178.657455 1695.845215,180.104462 
	C1697.599365,181.633911 1699.353516,183.163361 1701.496582,184.802841 
z"/>
<path fill="#20D761" opacity="1.000000" stroke="none" 
	d="
M1545.273193,187.999939 
	C1545.273315,158.872528 1545.273315,130.245132 1545.273315,101.308945 
	C1559.920532,101.308945 1574.132935,101.308945 1588.826172,101.308945 
	C1588.826172,114.433060 1588.826172,127.351830 1588.826172,140.733887 
	C1602.383545,140.733887 1615.473755,140.733887 1628.916992,140.733887 
	C1628.916992,154.263901 1628.916992,167.328384 1628.916992,180.855255 
	C1615.875244,180.855255 1602.785278,180.855255 1588.845947,180.855255 
	C1588.845947,189.697464 1588.455322,198.132324 1588.979004,206.510025 
	C1589.346802,212.393539 1589.984863,218.604721 1592.211182,223.959015 
	C1597.594482,236.906235 1612.525879,243.678558 1629.095581,241.748627 
	C1631.728760,241.441940 1634.360229,241.122375 1637.432129,240.756378 
	C1637.432129,254.120193 1637.432129,267.161591 1637.432129,281.669189 
	C1629.868286,281.765320 1622.094604,282.620911 1614.494995,281.822052 
	C1589.334351,279.177307 1568.824951,268.346619 1555.343750,246.135010 
	C1548.046631,234.112045 1545.515015,220.835327 1545.288940,206.996414 
	C1545.188232,200.832474 1545.272583,194.665512 1545.273193,187.999939 
z"/>
<path fill="#21D762" opacity="1.000000" stroke="none" 
	d="
M640.471924,281.819702 
	C638.911682,280.625580 636.799927,279.536102 636.778076,278.406189 
	C636.540039,266.095276 636.629089,253.778076 636.629089,240.837540 
	C638.765930,241.100128 640.510925,241.298279 642.251221,241.531143 
	C651.382812,242.752960 660.318359,241.799927 668.574707,237.763870 
	C676.683411,233.800003 681.480286,226.887833 682.958679,217.968689 
	C683.663330,213.717758 684.005249,209.359451 684.016846,205.048462 
	C684.102234,173.218994 684.062927,141.389175 684.062866,109.559471 
	C684.062866,107.736725 684.062866,105.913979 684.062866,103.678192 
	C698.540527,103.678192 712.749084,103.678192 727.301208,103.678192 
	C727.395691,105.151299 727.569702,106.604492 727.570374,108.057770 
	C727.585449,140.887360 727.651489,173.717148 727.560669,206.546478 
	C727.478027,236.385574 715.196594,259.309143 688.373901,273.373444 
	C673.553406,281.144470 657.476624,283.273163 640.471924,281.819702 
z"/>
<path fill="#21D762" opacity="1.000000" stroke="none" 
	d="
M1138.263184,245.999954 
	C1138.263184,209.230911 1138.263184,172.961868 1138.263184,136.308075 
	C1152.801270,136.308075 1167.002563,136.308075 1181.530273,136.308075 
	C1181.530273,184.305511 1181.530273,232.313904 1181.530273,280.631012 
	C1167.291748,280.631012 1153.212036,280.631012 1138.263062,280.631012 
	C1138.263062,269.299347 1138.263062,257.899658 1138.263184,245.999954 
z"/>
<path fill="#21D762" opacity="1.000000" stroke="none" 
	d="
M1140.900757,79.933777 
	C1152.595825,69.145271 1170.758545,69.523201 1179.435425,80.435722 
	C1187.228882,90.237175 1186.614990,107.042397 1178.157593,115.418633 
	C1169.460693,124.032211 1153.028564,124.460922 1143.317871,116.327690 
	C1134.016113,108.536949 1132.108887,92.873283 1139.175171,82.208878 
	C1139.633179,81.517509 1140.184326,80.887779 1140.900757,79.933777 
z"/>
<path fill="#F4F6F4" opacity="1.000000" stroke="none" 
	d="
M1254.886841,209.295227 
	C1247.396484,205.193161 1244.891479,198.992371 1245.818115,191.155960 
	C1246.730957,183.435822 1251.480225,178.942535 1258.583862,176.911026 
	C1269.071655,173.911713 1279.617798,173.705536 1289.885986,177.872910 
	C1296.975464,180.750183 1300.250488,186.349762 1300.256226,193.932266 
	C1300.261841,201.346298 1297.022705,206.913239 1290.145630,209.657272 
	C1278.561279,214.279526 1266.837158,214.171005 1254.886841,209.295227 
z"/>
<path fill="#F1F5F2" opacity="1.000000" stroke="none" 
	d="
M1258.222900,314.449646 
	C1255.876221,306.715179 1257.413330,300.818390 1262.377686,297.552856 
	C1267.953247,293.885284 1279.146118,294.107727 1284.275635,297.988068 
	C1288.534302,301.209656 1290.143311,308.145142 1287.844849,313.942749 
	C1287.305420,315.303345 1286.507202,316.658844 1285.515747,317.726898 
	C1279.002197,324.744141 1263.362549,323.028748 1258.222900,314.449646 
z"/>
<path fill="#F3F5F4" opacity="1.000000" stroke="none" 
	d="
M217.797668,253.232513 
	C200.748398,235.534683 207.316772,209.745193 225.517319,200.493317 
	C240.091644,193.084747 257.784302,197.281555 267.267517,210.472824 
	C276.446411,223.240768 274.838989,241.972290 263.619629,252.982300 
	C252.023392,264.362152 233.910736,265.492462 220.778458,255.650406 
	C219.849701,254.954361 218.949402,254.220306 217.797668,253.232513 
M243.553299,218.763916 
	C234.895401,217.326920 228.086945,223.417953 229.482544,231.351959 
	C230.424377,236.706299 234.850601,240.637543 240.195862,240.867203 
	C245.484711,241.094452 250.220551,237.461746 251.555298,232.153748 
	C252.906601,226.779846 250.304260,222.055389 243.553299,218.763916 
z"/>
<path fill="#F2F5F3" opacity="1.000000" stroke="none" 
	d="
M141.688110,278.772827 
	C135.104767,282.971344 129.916016,282.993042 124.356590,279.045654 
	C119.593735,275.663849 117.628830,270.245209 118.995750,264.261993 
	C120.335052,258.399628 124.716225,254.425598 130.997803,253.375305 
	C136.555420,252.446045 142.512192,255.574371 145.434647,260.957123 
	C148.489639,266.584015 147.294128,272.720673 141.688110,278.772827 
z"/>
<path fill="#F2F5F3" opacity="1.000000" stroke="none" 
	d="
M330.728577,171.008820 
	C335.692963,163.872162 343.865265,162.033936 350.509552,166.298492 
	C356.892578,170.395386 359.086456,178.647919 355.504974,185.089539 
	C351.658630,192.007538 343.545319,194.675674 336.753113,191.256302 
	C329.213745,187.460785 326.737427,179.567215 330.728577,171.008820 
z"/>
<path fill="#EEF5F1" opacity="1.000000" stroke="none" 
	d="
M231.872513,176.417145 
	C232.511963,177.586273 232.943954,178.428482 233.073715,178.681427 
	C225.001968,182.137787 217.163177,185.494385 208.727875,189.106415 
	C207.840881,184.901947 206.721237,180.036880 205.889648,175.123062 
	C205.779068,174.469543 206.975525,173.226181 207.830826,172.837982 
	C213.223419,170.390427 218.690643,168.107285 224.280151,165.706711 
	C226.879944,169.362137 229.272507,172.726181 231.872513,176.417145 
z"/>
<path fill="#24D864" opacity="1.000000" stroke="none" 
	d="
M243.925293,218.870499 
	C250.304260,222.055389 252.906601,226.779846 251.555298,232.153748 
	C250.220551,237.461746 245.484711,241.094452 240.195862,240.867203 
	C234.850601,240.637543 230.424377,236.706299 229.482544,231.351959 
	C228.086945,223.417953 234.895401,217.326920 243.925293,218.870499 
z"/>
</svg>